<?xml version="1.0" encoding="utf-8"?>
<!-- Generator: Adobe Illustrator 19.0.0, SVG Export Plug-In . SVG Version: 6.00 Build 0)  -->
<svg version="1.1" id="Layer_1" xmlns="http://www.w3.org/2000/svg" xmlns:xlink="http://www.w3.org/1999/xlink" x="0px" y="0px"
	 viewBox="-5.8 -1.8 80.3 85.7" style="enable-background:new -5.8 -1.8 80.3 85.7;" xml:space="preserve">
<style type="text/css">
	.st0{fill:#018CB7;}
</style>
<path class="st0" d="M58.3,51.7c-0.9,0-1.7,0.8-1.7,1.7v10c0,7.1-6.7,13.3-14.3,13.3H15.7c-7.1,0-12.4-5.7-12.4-13.3V40h53.3
	c0.9,0,1.7-0.7,1.7-1.7s-0.7-1.7-1.7-1.7V23.3C56.7,10.3,45.3,0,30.7,0h-3.3C13.5,0,3.3,9.8,3.3,23.3v13.3H1.7
	c-0.9,0-1.7,0.7-1.7,1.7v25C0,72.8,6.8,80,15.7,80h26.7C51.9,80,60,72.4,60,63.3v-10C60,52.4,59.3,51.7,58.3,51.7z M6.7,23.3
	c0-11.8,8.5-20,20.7-20h3.3c11.1,0,22.6,7.5,22.6,20v13.3H6.7V23.3z"/>
<path class="st0" d="M70.4,35.5c-0.5-0.7-1.6-0.9-2.3-0.3L29.2,64.2l-8.8-8.7c-0.7-0.7-1.7-0.7-2.4,0c-0.7,0.6-0.6,1.7,0,2.4
	l9.8,9.7c0.3,0.3,0.8,0.5,1.2,0.5c0.3,0,0.7-0.1,1-0.3l40-29.9C70.8,37.2,71,36.2,70.4,35.5L70.4,35.5z"/>
</svg>
