<?xml version="1.0" encoding="utf-8"?>
<!-- Generator: Adobe Illustrator 19.0.0, SVG Export Plug-In . SVG Version: 6.00 Build 0)  -->
<svg version="1.1" id="Layer_1" xmlns="http://www.w3.org/2000/svg" xmlns:xlink="http://www.w3.org/1999/xlink" x="0px" y="0px"
	 viewBox="0 0 162.5 322.5" style="enable-background:new 0 0 162.5 322.5;" xml:space="preserve">
<style type="text/css">
	.st0{fill:#FFFFFF;}
</style>
<path class="st0" d="M112.1,46.3c-3.5,1.8-6.6,4.4-9.1,7.5c-3.7,4.7-6.1,10.4-7.6,16.9c-1.5,6.5-2.1,13.9-2.1,22.2
	c0,0.9,0,1.7,0,2.6c0.1,3.8,3.1,5.8,6.9,6c10.1,0.3,26.7-0.7,36.9-0.7c0.5,0,1,0,1.5,0l-0.1,30.5c-3.6,0-8.3,0.5-13.1,0.5
	c-7.6,0-15.4,0.3-20.5,0.6c-3.8,0.2-6.8,3.5-6.8,7.4c0.2,12.2,0.6,57.3,1,99.3c0.2,21,0.4,41.3,0.5,56.2c0.1,7.3,0.1,13.3,0.2,17.6
	l-49,0.3c0.1-9.4,0.2-27.3,0.2-48.8c0-40.6-0.4-93.7-2.2-126.5c-0.2-3.7-3.2-6.6-6.9-6.7c-9.6-0.3-25.7-0.4-34.9-0.4L7,98
	c2,0,4.3,0,6.8,0c7,0,14.9-0.1,20.6-0.4c3.7-0.2,6.6-3.2,6.7-6.9c0.4-15,1.2-30.2,5.2-43.1c2-6.5,4.7-12.4,8.5-17.6
	c3.8-5.2,8.6-9.7,15-13.4l0,0C83.3,8.7,97.9,5.8,112.3,5.8c16.4,0,32.5,3.8,45.5,8.3c-0.1,2.2-0.4,5-1,8c-1,5.5-2.5,11.8-4.1,17.5
	c-0.7,2.6-1.5,5.1-2.1,7.4c-8.4-2.7-15.9-4.2-22.7-4.2C122.2,42.7,116.8,43.8,112.1,46.3z"/>
</svg>
