<?xml version="1.0" encoding="utf-8"?>
<!-- Generator: Adobe Illustrator 19.0.0, SVG Export Plug-In . SVG Version: 6.00 Build 0)  -->
<svg version="1.1" id="Layer_1" xmlns="http://www.w3.org/2000/svg" xmlns:xlink="http://www.w3.org/1999/xlink" x="0px" y="0px"
	 viewBox="7.7 0 89.3 67.2" style="enable-background:new 7.7 0 89.3 67.2;" xml:space="preserve">
<style type="text/css">
	.st0{fill:#018CB7;}
</style>
<path class="st0" d="M52.7,29.7c-5.4,0-10-3.8-10-8.3V4.7c0-0.9,0.7-1.7,1.7-1.7H61c0.9,0,1.7,0.7,1.7,1.7v16.7
	C62.7,25.8,58.1,29.7,52.7,29.7L52.7,29.7z M46,6.3v15c0,2.7,3.1,5,6.7,5c3.5,0,6.7-2.3,6.7-5v-15H46L46,6.3z"/>
<path class="st0" d="M91,63H14.3c-0.9,0-1.7-0.7-1.7-1.7V18c0-0.9,0.7-1.7,1.7-1.7h28.3c0.9,0,1.7,0.7,1.7,1.7s-0.7,1.7-1.7,1.7H16
	v40h73.3v-40H62.7c-0.9,0-1.7-0.7-1.7-1.7s0.8-1.7,1.7-1.7H91c0.9,0,1.7,0.7,1.7,1.7v43.3C92.7,62.3,91.9,63,91,63L91,63z"/>
<path class="st0" d="M42.7,39.7H26c-0.9,0-1.7-0.7-1.7-1.7s0.7-1.7,1.7-1.7h16.7c0.9,0,1.7,0.7,1.7,1.7S43.6,39.7,42.7,39.7z"/>
<path class="st0" d="M52.7,46.3H26c-0.9,0-1.7-0.7-1.7-1.7S25.1,43,26,43h26.7c0.9,0,1.7,0.7,1.7,1.7S53.6,46.3,52.7,46.3z"/>
<path class="st0" d="M84.3,53h-20c-0.9,0-1.7-0.7-1.7-1.7V28c0-0.9,0.8-1.7,1.7-1.7h20c0.9,0,1.7,0.7,1.7,1.7v23.3
	C86,52.3,85.2,53,84.3,53z M66,49.7h16.7v-20H66V49.7z"/>
</svg>
