<?xml version="1.0" encoding="utf-8"?>
<!-- Generator: Adobe Illustrator 19.0.0, SVG Export Plug-In . SVG Version: 6.00 Build 0)  -->
<svg version="1.1" id="Layer_1" xmlns="http://www.w3.org/2000/svg" xmlns:xlink="http://www.w3.org/1999/xlink" x="0px" y="0px"
	 viewBox="0 0 87.2 51.2" style="enable-background:new 0 0 87.2 51.2;" xml:space="preserve">
<style type="text/css">
	.st0{fill:#018CB7;}
</style>
<path class="st0" d="M24.9,16.9c0-0.8-0.7-1.5-1.5-1.5H5.5C4.7,15.4,4,16,4,16.9c0,0.8,0.7,1.5,1.5,1.5h17.9
	C24.2,18.3,24.9,17.7,24.9,16.9z"/>
<path class="st0" d="M20.4,24.3H5.5C4.7,24.3,4,25,4,25.8c0,0.8,0.7,1.5,1.5,1.5h14.9c0.8,0,1.5-0.7,1.5-1.5
	C21.9,25,21.2,24.3,20.4,24.3z"/>
<path class="st0" d="M17.4,33.2H5.5c-0.8,0-1.5,0.7-1.5,1.5c0,0.8,0.7,1.5,1.5,1.5h11.9c0.8,0,1.5-0.7,1.5-1.5
	C18.9,33.9,18.2,33.2,17.4,33.2z"/>
<path class="st0" d="M82.7,4.7c-1.2-1.4-3-2.3-5-2.3H38.9c-4,0-7.8,3.1-8.7,7l-6.4,30.1c-0.4,2,0,3.9,1.2,5.4c1.2,1.4,3,2.3,5,2.3
	h38.7c4,0,7.8-3.1,8.7-7l6.4-30.1C84.3,8.1,83.8,6.2,82.7,4.7L82.7,4.7z M80.9,9.4l-6.4,30.1c-0.5,2.5-3.2,4.6-5.8,4.6H30
	c-1.1,0-2.1-0.4-2.7-1.2c-0.6-0.7-0.8-1.8-0.6-2.9l6.4-30.1c0.5-2.5,3.2-4.6,5.8-4.6h38.7c1.1,0,2.1,0.4,2.7,1.2
	C81,7.3,81.2,8.3,80.9,9.4L80.9,9.4z"/>
<path class="st0" d="M73.6,12.8L58.4,28c0,0,0,0,0,0c0,0,0,0,0,0.1l-1.2,1.2c-0.9,0.9-1.9,1.3-3,1.2c-1.1-0.1-2-0.7-2.7-1.7
	L40.4,12.9c-0.5-0.7-1.4-0.8-2.1-0.4c-0.7,0.5-0.8,1.4-0.4,2.1l8.5,12.2l-12.4,9.9c-0.6,0.5-0.7,1.5-0.2,2.1
	c0.3,0.4,0.7,0.6,1.2,0.6c0.3,0,0.7-0.1,0.9-0.3l12.2-9.8l0.8,1.2c1.2,1.7,3,2.8,4.9,3c0.2,0,0.4,0,0.6,0c1.8,0,3.4-0.7,4.8-2.1l0,0
	l6.3,7.2c0.3,0.3,0.7,0.5,1.1,0.5c0.3,0,0.7-0.1,1-0.4c0.6-0.5,0.7-1.5,0.1-2.1l-6.4-7.4l14.3-14.3c0.6-0.6,0.6-1.5,0-2.1
	C75.2,12.2,74.2,12.2,73.6,12.8L73.6,12.8z"/>
</svg>
