<?xml version="1.0" encoding="utf-8"?>
<!-- Generator: Adobe Illustrator 19.0.0, SVG Export Plug-In . SVG Version: 6.00 Build 0)  -->
<svg version="1.1" id="Isolation_Mode" xmlns="http://www.w3.org/2000/svg" xmlns:xlink="http://www.w3.org/1999/xlink" x="0px"
	 y="0px" viewBox="-278 366.5 54.2 60.5" style="enable-background:new -278 366.5 54.2 60.5;" xml:space="preserve">
<style type="text/css">
	.st0{fill:#018CB7;}
</style>
<g>
	<path class="st0" d="M-241.8,394.8c-0.7,0-1.2,0.5-1.2,1.2v4.8c0,0.7,0.5,1.2,1.2,1.2s1.2-0.5,1.2-1.2V396
		C-240.6,395.3-241.1,394.8-241.8,394.8z"/>
	<path class="st0" d="M-264.7,401.3l7.2-7.2l0,0c0.1-0.1,0.2-0.2,0.3-0.4c0-0.1,0-0.2,0.1-0.3c0-0.1,0-0.1,0-0.2c0-0.1,0-0.2,0-0.2
		c0-0.1,0-0.1,0-0.2c-0.1-0.2-0.2-0.3-0.3-0.4l-7.2-7.2c-0.5-0.5-1.2-0.5-1.7,0s-0.5,1.2,0,1.7l5.1,5.2h-14.1
		c-0.7,0-1.2,0.5-1.2,1.2c0,0.7,0.5,1.2,1.2,1.2h14.1l-5.2,5.2c-0.5,0.5-0.5,1.2,0,1.7c0.2,0.2,0.5,0.4,0.8,0.4
		C-265.3,401.8-264.9,401.5-264.7,401.3z"/>
	<path class="st0" d="M-230.3,368c-0.2,0-0.4,0-0.5,0.1c-0.1,0-0.2-0.1-0.3-0.1h-28.8c-3.3,0-6,2.7-6,6v5.2c0,0.7,0.5,1.2,1.2,1.2
		c0.7,0,1.2-0.5,1.2-1.2V374c0-2,1.6-3.6,3.6-3.6h23l-9,3.9c-1.9,0.8-3.1,2.7-3.1,4.8v37.8h-10.9c-2,0-3.6-1.6-3.6-3.6v-5.2
		c0-0.7-0.5-1.2-1.2-1.2c-0.7,0-1.2,0.5-1.2,1.2v5.2c0,3.3,2.7,6,6,6h10.8v1.2c0,2.9,2.3,5.2,5.2,5.2c0.7,0,1.4-0.1,2-0.4l13.6-5.8
		c1.9-0.8,3.1-2.7,3.1-4.8v-41.5C-225.1,370.4-227.4,368-230.3,368z M-227.5,414.6c0,1.1-0.7,2.1-1.7,2.6l-13.6,5.8
		c-0.3,0.2-0.7,0.2-1.1,0.2c-1.5,0-2.8-1.2-2.8-2.8v-41.3c0-1.1,0.7-2.1,1.7-2.6l13.6-5.8c0.4-0.2,0.7-0.3,1.1-0.3
		c1.5,0,2.8,1.2,2.8,2.8V414.6z"/>
</g>
</svg>
