<?xml version="1.0" encoding="utf-8"?>
<!-- Generator: Adobe Illustrator 19.0.0, SVG Export Plug-In . SVG Version: 6.00 Build 0)  -->
<svg version="1.1" id="Layer_1" xmlns="http://www.w3.org/2000/svg" xmlns:xlink="http://www.w3.org/1999/xlink" x="0px" y="0px"
	 viewBox="0 0 70.5 88.5" style="enable-background:new 0 0 70.5 88.5;" xml:space="preserve">
<style type="text/css">
	.st0{fill:#018CB7;}
</style>
<path class="st0" d="M65.5,42.3c0-1.2-1-2.2-2.2-2.2h-1.2V27.3c0-13.6-11-23.8-25.5-23.8h-3.3C18.8,3.5,7.8,13.7,7.8,27.3v12.8H6.7
	c-1.2,0-2.2,1-2.2,2.2v25c0,9.5,7.7,17.2,17.2,17.2h26.7c9.5,0,17.2-7.7,17.2-17.2V42.3z M12.2,27.3c0-11.3,8.9-19.5,21.2-19.5h3.3
	c12.3,0,21.2,8.2,21.2,19.5v12.8H12.2V27.3z M61.2,67.3c0,7.1-5.8,12.8-12.8,12.8H21.7c-7.1,0-12.8-5.8-12.8-12.8V44.5h52.3V67.3z"
	/>
<path class="st0" d="M42.2,62.5l0.1-0.1c1-1.5,1.6-3.2,1.6-5c0-4.9-4-8.8-8.8-8.8c-4.9,0-8.8,4-8.8,8.8c0,1.8,0.5,3.5,1.6,5l0.1,0.1
	v4.9c0,2.9,2.2,7.2,5.5,7.2h3.3c3.3,0,5.5-4.3,5.5-7.2V62.5z M38.4,60.3c-0.3,0.4-0.5,0.9-0.5,1.4v5.6c0,1-0.7,2.2-1.1,2.7l-0.1,0.2
	h-3.2L33.2,70c-0.4-0.4-1.1-1.7-1.1-2.7v-5.6c0-0.5-0.2-1-0.5-1.4c-0.5-0.6-1.1-1.6-1.1-2.9c0-2.5,2-4.5,4.5-4.5s4.5,2,4.5,4.5
	C39.5,58.7,38.9,59.7,38.4,60.3z"/>
</svg>
