<?xml version="1.0" encoding="utf-8"?>
<!-- Generator: Adobe Illustrator 19.0.0, SVG Export Plug-In . SVG Version: 6.00 Build 0)  -->
<svg version="1.1" id="icons" xmlns="http://www.w3.org/2000/svg" xmlns:xlink="http://www.w3.org/1999/xlink" x="0px" y="0px"
	 viewBox="0 0 66.8 59.5" style="enable-background:new 0 0 66.8 59.5;" xml:space="preserve">
<g>
	<path d="M53.4,51.9H30.4c-1.8,0-6.4-2-6.4-4.2V27.3c0-0.4,0.2-0.7,0.6-0.9c5.3-2.5,7.3-6.6,9.4-14.3V5.3c0-0.3,0.1-0.5,0.3-0.7
		c1-1.1,2.4-1.6,3.8-1.6c2,0,4,1.1,5.4,3c2.4,3.2,2.9,8.2,1.5,13.8h10.8c2.5,0,7.4,2.8,7.4,6.4c0,1.1-0.1,3.4-1,4.5
		c0.7,1.8,0.8,4.9-1.2,6.9c0.2,3.5-0.7,5.9-2.6,7.3c0,1.8-0.8,3.9-2,5.3C55.5,51.3,54.5,51.9,53.4,51.9z M26,27.9v19.7
		c0.2,0.7,3,2.2,4.4,2.2h23.1c0.4,0,1-0.3,1.5-0.9c1-1.2,1.7-3.1,1.5-4.4c-0.1-0.4,0.1-0.8,0.5-1c1.6-0.9,2.3-3,2.1-6.2
		c0-0.3,0.1-0.6,0.4-0.8c1.9-1.6,1.3-4.6,0.8-5.5c-0.2-0.3-0.2-0.6-0.1-0.9c0.1-0.3,0.4-0.5,0.7-0.6c0.1-0.1,0.5-1.3,0.5-3.3
		c0-2.3-3.9-4.4-5.4-4.4H43.7c-0.3,0-0.6-0.2-0.8-0.4s-0.2-0.6-0.2-0.9c1.7-5.5,1.4-10.4-0.8-13.3C40.3,5,37.7,4.4,36,5.8v6.5
		c0,0.1,0,0.2,0,0.3C34.1,19.3,32.2,24.8,26,27.9z"/>
	<path d="M21.9,53.9H8.1C5.9,53.9,4,52,4,49.7V24c0-2.3,1.9-4.1,4.1-4.1h13.7c2.3,0,4.1,1.9,4.1,4.1v25.7C26,52,24.1,53.9,21.9,53.9
		z M8.1,21.9C7,21.9,6,22.8,6,24v25.7c0,1.2,1,2.1,2.1,2.1h13.7c1.2,0,2.1-1,2.1-2.1V24c0-1.2-1-2.1-2.1-2.1H8.1z"/>
</g>
</svg>
