<?xml version="1.0" encoding="utf-8"?>
<!-- Generator: Adobe Illustrator 19.0.0, SVG Export Plug-In . SVG Version: 6.00 Build 0)  -->
<svg version="1.1" id="Layer_1" xmlns="http://www.w3.org/2000/svg" xmlns:xlink="http://www.w3.org/1999/xlink" x="0px" y="0px"
	 viewBox="0 0 73.2 93.5" style="enable-background:new 0 0 73.2 93.5;" xml:space="preserve">
<style type="text/css">
	.st0{fill:#018CB7;}
</style>
<g>
	<path class="st0" d="M64.4,81.9V20.1c0-0.4-0.2-0.8-0.4-1.1L50.6,4.1c-0.3-0.4-0.8-0.6-1.2-0.6H6c-0.9,0-1.7,0.7-1.7,1.7v76.7
		c0,0.9,0.8,1.7,1.7,1.7h56.7C63.6,83.5,64.4,82.8,64.4,81.9z M51,9.6l9.5,10.6H51V9.6z M61,80.2H7.7V6.9h40v15
		c0,0.9,0.7,1.7,1.7,1.7H61V80.2z"/>
	<path class="st0" d="M68.7,22.3c-0.9,0-1.7,0.8-1.7,1.7v62.8H18c-0.9,0-1.7,0.8-1.7,1.7c0,0.9,0.8,1.7,1.7,1.7h50.7
		c0.9,0,1.7-0.8,1.7-1.7V24C70.4,23.1,69.7,22.3,68.7,22.3z"/>
	<path class="st0" d="M16,33.1c-0.9,0-1.6,0.7-1.6,1.6c0,0.9,0.7,1.6,1.6,1.6h33.3c0.9,0,1.6-0.7,1.6-1.6c0-0.9-0.7-1.6-1.6-1.6H16z
		"/>
	<path class="st0" d="M16,44.6c-0.9,0-1.6,0.7-1.6,1.6c0,0.9,0.7,1.6,1.6,1.6h34.1c0.9,0,1.6-0.7,1.6-1.6c0-0.9-0.7-1.6-1.6-1.6H16z
		"/>
	<path class="st0" d="M50.4,56.2H16c-0.9,0-1.6,0.7-1.6,1.6c0,0.9,0.7,1.6,1.6,1.6h34.4c0.9,0,1.6-0.7,1.6-1.6
		C52,56.9,51.3,56.2,50.4,56.2z"/>
	<path class="st0" d="M35.8,67.8H16c-0.9,0-1.6,0.7-1.6,1.6c0,0.9,0.7,1.6,1.6,1.6h19.8c0.9,0,1.6-0.7,1.6-1.6
		C37.4,68.5,36.7,67.8,35.8,67.8z"/>
</g>
</svg>
