<?xml version="1.0" encoding="utf-8"?>
<!-- Generator: Adobe Illustrator 19.0.0, SVG Export Plug-In . SVG Version: 6.00 Build 0)  -->
<svg version="1.1" id="icons" xmlns="http://www.w3.org/2000/svg" xmlns:xlink="http://www.w3.org/1999/xlink" x="0px" y="0px"
	 viewBox="0 0 66.8 46.2" style="enable-background:new 0 0 66.8 46.2;" xml:space="preserve">
<g>
	<path d="M59.4,43h-56c-0.6,0-1-0.4-1-1V10c0-0.6,0.4-1,1-1h56c0.6,0,1,0.4,1,1v32C60.4,42.6,60,43,59.4,43z M4.4,41h54V11h-54V41z"
		/>
	<path d="M22.9,37h-11c-1.9,0-3.5-1.6-3.5-3.5v-13c0-1.9,1.6-3.5,3.5-3.5h11c1.9,0,3.5,1.6,3.5,3.5v13C26.4,35.5,24.8,37,22.9,37z
		 M11.9,19c-0.8,0-1.5,0.7-1.5,1.5v13c0,0.8,0.7,1.5,1.5,1.5h11c0.8,0,1.5-0.7,1.5-1.5v-13c0-0.8-0.7-1.5-1.5-1.5H11.9z"/>
	<path d="M52.4,23h-22c-0.6,0-1-0.4-1-1c0-0.6,0.4-1,1-1h22c0.6,0,1,0.4,1,1C53.4,22.6,53,23,52.4,23z"/>
	<path d="M52.4,31h-22c-0.6,0-1-0.4-1-1c0-0.6,0.4-1,1-1h22c0.6,0,1,0.4,1,1C53.4,30.6,53,31,52.4,31z"/>
	<path d="M63.4,36c-0.6,0-1-0.4-1-1V7h-50c-0.6,0-1-0.4-1-1c0-0.6,0.4-1,1-1h51c0.6,0,1,0.4,1,1v29C64.4,35.6,64,36,63.4,36z"/>
</g>
</svg>
