<?xml version="1.0" encoding="utf-8"?>
<!-- Generator: Adobe Illustrator 19.0.0, SVG Export Plug-In . SVG Version: 6.00 Build 0)  -->
<svg version="1.1" id="Isolation_Mode" xmlns="http://www.w3.org/2000/svg" xmlns:xlink="http://www.w3.org/1999/xlink" x="0px"
	 y="0px" viewBox="5.8 3.5 112 77" style="enable-background:new 5.8 3.5 112 77;" xml:space="preserve">
<style type="text/css">
	.st0{fill:#FFFFFF;}
</style>
<g>
	<g>
		<path class="st0" d="M45.4,76.9c-19,0-34.5-15.2-34.5-33.9c0-18.7,15.5-33.9,34.5-33.9c8.3,0,16.4,3,22.6,8.3l-8.8,9.9
			c-3.8-3.3-8.8-5.1-13.9-5.1c-11.7,0-21.1,9.3-21.1,20.8c0,11.4,9.5,20.8,21.1,20.8c9.9,0,16.3-4.7,18.4-13.2H45.6V37.4h32.3V44
			C77.9,63.7,64.9,76.9,45.4,76.9z"/>
	</g>
	<polygon class="st0" points="113.9,37.4 103.9,37.4 103.9,27.4 95.9,27.4 95.9,37.4 85.9,37.4 85.9,45.4 95.9,45.4 95.9,55.4 
		103.9,55.4 103.9,45.4 113.9,45.4 	"/>
</g>
</svg>
