<?xml version="1.0" encoding="utf-8"?>
<!-- Generator: Adobe Illustrator 19.0.0, SVG Export Plug-In . SVG Version: 6.00 Build 0)  -->
<svg version="1.1" id="Isolation_Mode" xmlns="http://www.w3.org/2000/svg" xmlns:xlink="http://www.w3.org/1999/xlink" x="0px"
	 y="0px" viewBox="5.8 3.5 68 43.3" style="enable-background:new 5.8 3.5 68 43.3;" xml:space="preserve">
<style type="text/css">
	.st0{fill:#018CB7;}
</style>
<g>
	<path class="st0" d="M66.3,43.8h-56c-0.6,0-1-0.4-1-1v-32c0-0.6,0.4-1,1-1h56c0.6,0,1,0.4,1,1v32C67.3,43.4,66.9,43.8,66.3,43.8z
		 M11.3,41.8h54v-30h-54V41.8z"/>
	<path class="st0" d="M29.8,37.8h-11c-1.9,0-3.5-1.6-3.5-3.5v-13c0-1.9,1.6-3.5,3.5-3.5h11c1.9,0,3.5,1.6,3.5,3.5v13
		C33.3,36.3,31.8,37.8,29.8,37.8z M18.8,19.8c-0.8,0-1.5,0.7-1.5,1.5v13c0,0.8,0.7,1.5,1.5,1.5h11c0.8,0,1.5-0.7,1.5-1.5v-13
		c0-0.8-0.7-1.5-1.5-1.5H18.8z"/>
	<path class="st0" d="M59.3,23.8h-22c-0.6,0-1-0.4-1-1c0-0.6,0.4-1,1-1h22c0.6,0,1,0.4,1,1C60.3,23.4,59.9,23.8,59.3,23.8z"/>
	<path class="st0" d="M59.3,31.8h-22c-0.6,0-1-0.4-1-1c0-0.6,0.4-1,1-1h22c0.6,0,1,0.4,1,1C60.3,31.4,59.9,31.8,59.3,31.8z"/>
	<path class="st0" d="M70.3,36.8c-0.6,0-1-0.4-1-1v-28h-50c-0.6,0-1-0.4-1-1c0-0.6,0.4-1,1-1h51c0.6,0,1,0.4,1,1v29
		C71.3,36.4,70.9,36.8,70.3,36.8z"/>
</g>
</svg>
