<?xml version="1.0" encoding="utf-8"?>
<!-- Generator: Adobe Illustrator 19.0.0, SVG Export Plug-In . SVG Version: 6.00 Build 0)  -->
<svg version="1.1" id="Isolation_Mode" xmlns="http://www.w3.org/2000/svg" xmlns:xlink="http://www.w3.org/1999/xlink" x="0px"
	 y="0px" viewBox="5.8 3.5 57.7 64.7" style="enable-background:new 5.8 3.5 57.7 64.7;" xml:space="preserve">
<style type="text/css">
	.st0{fill:#018CB7;}
</style>
<g>
	<path class="st0" d="M8.3,66.2c-0.6,0-1-0.4-1-1v-2.8c0-7.2,4.5-11.2,12.3-11.2h3.2l4.3-5.9c0.3-0.4,0.9-0.5,1.4-0.2
		c0.4,0.3,0.5,0.9,0.2,1.4l-4.6,6.3c-0.2,0.3-0.5,0.4-0.8,0.4h-3.8c-4.7,0-10.3,1.6-10.3,9.2v2.8C9.3,65.7,8.9,66.2,8.3,66.2z"/>
	<path class="st0" d="M60.3,66.2c-0.6,0-1-0.4-1-1v-2.8c0-6.8-6.5-9.2-12-9.2h-3.8c-0.4,0-0.7-0.2-0.9-0.5L39,46.4
		c-0.3-0.5-0.1-1.1,0.4-1.4c0.5-0.3,1.1-0.1,1.4,0.4l3.4,5.8h3.2c7,0,14,3.5,14,11.2v2.8C61.3,65.7,60.9,66.2,60.3,66.2z"/>
	<path class="st0" d="M33.4,48.4c-7,0-14.4-7.7-14.9-15.3c-1.2-0.6-1.2-2.1-1.2-3.2v-5.1c0-1.4,1.3-2.5,2-3v-4.5
		c0-6,3.5-8.4,12.2-8.5c3.5-2.6,7-3.1,9.2-3.1c4.3,0,8.1,2,9.6,5c1.1,2.2,0.7,4.7-1,7v4.1c0.7,0.5,2,1.6,2,3v5c0,0.7,0,2.8-2.1,3.4
		C48.6,40.6,40.5,48.4,33.4,48.4z M40.7,7.8c-2,0-5.1,0.5-8.3,2.9c-0.2,0.1-0.4,0.2-0.6,0.2c-9.7,0-10.5,3.1-10.5,6.5v5
		c0,0.4-0.2,0.7-0.5,0.9c-0.6,0.4-1.5,1.1-1.5,1.6v5c0,0.6,0,1.3,0.1,1.5c0.5,0.1,1,0.5,1,1c0,6.7,6.8,14,12.9,14
		c6.3,0,13.8-7.6,13.8-14c0-0.5,0.4-1,1-1c0.9,0,1.1-0.2,1.1-1.5v-5c0-0.5-0.9-1.3-1.5-1.6c-0.3-0.2-0.5-0.5-0.5-0.9v-5
		c0-0.2,0.1-0.4,0.2-0.6c1.4-1.7,1.7-3.5,0.9-5.1C47.4,9.4,44.3,7.8,40.7,7.8z"/>
</g>
</svg>
